<?xml version="1.0" encoding="iso-8859-1"?>
<!-- Generator: Adobe Illustrator 24.1.2, SVG Export Plug-In . SVG Version: 6.00 Build 0)  -->
<svg version="1.1" baseProfile="basic" id="Layer_1"
	 xmlns="http://www.w3.org/2000/svg" xmlns:xlink="http://www.w3.org/1999/xlink" x="0px" y="0px" viewBox="0 0 24 24"
	 xml:space="preserve">
<g>
	<path d="M7.25,22C5.458,22,4,20.542,4,18.75c0-1.229,0.686-2.342,1.789-2.903L9,14.431v2.336L16.943,12L9,7.233v6.621l-2.313-0.405
		C5.13,13.177,4,11.831,4,10.25c0-1.209,0.667-2.311,1.74-2.875l9.45-4.976C15.682,2.132,16.201,2,16.75,2
		C18.542,2,20,3.458,20,5.25c0,1.229-0.686,2.342-1.789,2.903l-4.146,1.828l3.247,0.569C18.87,10.823,20,12.169,20,13.75
		c0,1.24-0.724,2.39-1.844,2.929L8.81,21.601C8.321,21.868,7.803,22,7.25,22z"/>
	<path d="M16.75,3C17.991,3,19,4.009,19,5.25c0,0.836-0.459,1.594-1.2,1.991l-1.121,0.494L13.854,8.98l-2.825-1.695L9.64,6.452
		l6.042-3.181C16.012,3.091,16.371,3,16.75,3 M8,7.316V9v3.665l-1.139-0.2C5.783,12.276,5,11.344,5,10.25
		c0-0.836,0.462-1.599,1.207-1.99L8,7.316 M18.443,12.267C18.792,12.665,19,13.186,19,13.75c0,0.859-0.501,1.655-1.276,2.027
		l-0.033,0.016l-0.032,0.017l-9.347,4.922C7.989,20.91,7.632,21,7.25,21C6.009,21,5,19.991,5,18.75c0-0.836,0.459-1.594,1.2-1.991
		l1.121-0.494L8,15.966v2.566l3.029-1.817l5-3L18.443,12.267 M16.75,1c-0.73,0-1.42,0.185-2.025,0.515L5.275,6.49
		C3.925,7.2,3,8.62,3,10.25c0,2.095,1.52,3.835,3.515,4.185l-1.18,0.52C3.95,15.66,3,17.095,3,18.75C3,21.095,4.905,23,7.25,23
		c0.735,0,1.425-0.185,2.025-0.515l9.315-4.905c1.425-0.685,2.41-2.145,2.41-3.83c0-2.095-1.52-3.835-3.515-4.185l1.18-0.52
		C20.05,8.34,21,6.905,21,5.25C21,2.905,19.095,1,16.75,1L16.75,1z M10,15V9l5,3L10,15L10,15z"/>
</g>
</svg>